<svg xmlns="http://www.w3.org/2000/svg" viewBox="0 0 48 48">
    <defs>
        <style>.cls-1{fill:#fc6}.cls-7{fill:#ffba55}</style>
    </defs>
    <g id="pencil">
        <path class="cls-1"
              d="M40.58 15.75 12.81 43.53l-1.56-2.59c-.65-1.08-.07-.74-2.61-1.58-.85-2.54-.49-2-1.59-2.61L4.47 35.2 32.25 7.42z"/>
        <path d="M39.58 14.75C18.81 35.52 19 36 15.24 37a10.35 10.35 0 0 1-9.77-2.8L32.25 7.42z" style="fill:#ffde76"/>
        <path d="m12.81 43.53-6 1.75a8.76 8.76 0 0 0-4.12-4.12c.68-2.3.28-.93 1.75-6l3.47 2.08.7 2.08 2.08.7c1.31 2.21.85 1.41 2.12 3.51z"
              style="fill:#f6ccaf"/>
        <path d="M11.75 41.78c-4.49.81-7.52-1.83-8.52-2.35l1.24-4.23 3.47 2.08.7 2.08 2.08.7z" style="fill:#ffdec7"/>
        <path d="M6.84 45.28c0 .1.09 0-5.84 1.72.81-2.76.42-1.45 1.72-5.84a8.85 8.85 0 0 1 4.12 4.12z"
              style="fill:#374f68"/>
        <path d="m5.78 43.6-4.14 1.21 1.08-3.65a8.67 8.67 0 0 1 3.06 2.44z" style="fill:#425b72"/>
        <path class="cls-7"
              d="M38.51 13.68 11.25 40.94c-.64-1.07-.26-.79-1.58-1.24L37.1 12.27zM35.74 10.91 8.3 38.34c-.45-1.33-.17-1-1.25-1.59L34.32 9.49z"/>
        <path class="cls-1" d="M35.74 10.91 9.83 36.81a10.59 10.59 0 0 1-2-.84L34.32 9.49z"/>
        <path d="M46.14 10.2 43.36 13 35 4.64l2.8-2.78a3 3 0 0 1 4.17 0L46.14 6a3 3 0 0 1 0 4.2z" style="fill:#db5669"/>
        <path d="M46.83 7.11c-.77 2.2-4.18 3.15-6.25 1.08L36 3.64l1.8-1.78a3 3 0 0 1 4.17 0c4.61 4.61 4.58 4.45 4.86 5.25z"
              style="fill:#f26674"/>
        <path d="m43.36 13-2.78 2.78-8.33-8.36L35 4.64z" style="fill:#dad7e5"/>
        <path d="M42.36 12a2.52 2.52 0 0 1-3.56 0l-5.55-5.58L35 4.64z" style="fill:#edebf2"/>
        <path class="cls-1" d="M38.51 13.68 15.24 37a10.69 10.69 0 0 1-3.09.27l25-24.95z"/>
    </g>
</svg>